<svg width="549" viewBox="0 0 549 550" fill="none" xmlns="http://www.w3.org/2000/svg">
<path d="M138.999 411.899C121.178 396.683 120.082 371.87 119.534 354.049C117.615 286.054 123.92 219.978 123.92 193.109C124.057 161.305 130.637 147.46 140.645 137.178C146.813 130.735 143.935 126.485 135.71 129.638C126.251 133.34 120.493 139.234 116.38 155.959C105.961 198.867 103.357 338.284 106.784 376.942C108.703 398.465 119.533 414.504 134.476 417.657C144.62 420.124 146.128 418.068 138.999 411.899Z" fill="black"/>
<path d="M158.74 338.148C151.611 332.116 151.474 332.528 171.763 312.376C209.873 274.677 244.967 250.276 282.803 288.797C298.02 304.288 301.447 308.949 314.882 331.294C318.172 336.777 317.897 339.108 313.922 337.874C310.358 336.777 207.817 336.092 178.481 336.777C165.458 337.051 169.57 343.357 178.617 343.906C201.237 345.277 261.692 345.962 303.64 348.155C340.38 350.212 365.466 353.365 383.836 349.526C418.519 342.261 407.141 339.793 413.995 250.824C415.914 225.326 414.68 179.539 412.075 174.193C399.052 148.969 340.516 138.825 238.661 144.034C203.018 145.816 181.085 148.969 181.085 152.259C181.085 157.057 198.084 157.743 245.379 155.001C278.554 153.082 294.318 153.356 333.936 156.92C372.32 160.347 394.118 164.597 398.504 169.532C405.907 177.894 407.003 181.321 405.632 191.877C403.85 205.174 402.753 244.518 402.479 251.373L398.504 245.204C367.66 196.812 312.277 202.433 268.683 258.501L265.256 262.888L257.716 260.009C227.557 248.22 188.077 266.863 157.918 307.441L148.733 319.641L147.636 311.553C146.54 303.328 147.225 246.712 149.144 194.345C150.241 162.952 151.338 160.896 159.974 157.057C166.006 154.453 165.731 150.477 158.876 150.477C149.143 150.477 145.168 155.001 141.055 166.653C134.201 186.257 126.936 303.191 137.491 328.278C141.604 338.148 145.716 343.083 154.353 344.317C163.263 345.962 164.909 343.494 158.74 338.148ZM276.634 269.605C277.457 268.234 316.663 236.704 321.598 233.551C335.033 224.778 353.402 222.584 366.837 228.068C376.158 231.906 382.602 237.39 390.141 247.397C402.068 263.573 401.794 262.751 399.601 281.669C398.504 290.716 396.996 304.562 396.174 312.376C393.158 342.535 388.908 340.89 326.396 336.777L319.816 325.125C312.962 312.924 299.939 296.2 284.723 280.298C279.925 275.088 276.086 270.29 276.634 269.605Z" fill="black"/>
<path d="M440.864 182.282C446.21 164.735 431.543 137.181 399.19 130.327C378.216 125.803 334.623 125.117 217.277 122.924C199.867 122.65 179.715 122.787 172.449 123.198C159.152 124.158 154.491 125.803 157.919 128.407C162.579 131.972 177.659 132.931 244.008 133.617C405.907 135.399 419.067 137.729 429.486 164.872C431.405 169.944 430.583 263.163 428.39 287.153C427.293 300.039 425.648 326.497 424.962 346.1C422.906 402.854 417.011 412.999 388.086 410.805C374.103 409.708 280.062 412.176 206.31 413.273C130.227 414.369 157.78 423.965 169.844 425.336C215.357 430.409 405.496 423.417 422.221 414.918C455.258 398.33 440.316 184.064 440.864 182.282Z" fill="black"/>
<path d="M208.366 169.807C173.82 183.379 186.569 233.141 224.542 233.004C252.234 232.867 269.643 196.813 252.37 182.83C244.693 176.524 243.872 180.774 246.75 188.451C254.701 209.288 232.219 232.044 210.833 222.997C188.214 213.538 206.036 176.936 233.316 176.936L238.387 177.073C241.951 177.21 243.048 172.138 239.758 170.767C232.081 167.34 217.414 166.243 208.366 169.807Z" fill="black"/>
</svg>
