<svg width="550"  viewBox="0 0 550 549" fill="none" xmlns="http://www.w3.org/2000/svg">
<path fill-rule="evenodd" clip-rule="evenodd" d="M235.631 123.21C229.687 125.551 230.588 130.055 237.433 131.856C245.899 134.018 248.962 155.634 240.676 155.634C230.408 155.634 195.103 171.846 182.493 182.293C179.61 184.814 178.351 183.194 171.326 177.429C181.053 167.161 188.437 161.038 173.847 161.038C163.76 161.038 136.2 183.373 136.2 191.659C136.2 194.722 146.648 195.443 152.952 192.741C160.158 189.678 159.437 190.218 166.823 198.145L163.039 201.566C113.504 246.058 78.9187 403.493 251.484 425.649C332.182 436.097 394.147 390.703 402.432 315.049L403.694 304.061L413.42 302.8C433.235 300.458 430.533 273.259 410.357 270.015C406.215 269.296 402.612 267.855 402.253 266.594C389.463 218.859 365.686 185.715 350.375 193.46C345.692 195.802 346.412 197.424 354.338 201.927C385.499 219.58 395.948 307.664 372.17 353.417C318.853 455.91 157.454 427.63 146.287 313.787C135.479 203.908 231.669 132.036 325.696 179.591C338.126 185.896 352.897 185.896 362.264 179.41L369.108 174.727L373.432 179.41C387.842 194.902 399.91 182.654 386.041 166.802C369.108 147.348 343.169 141.223 353.258 159.055C360.643 172.205 350.375 175.628 330.2 166.982C322.275 163.559 310.026 159.416 302.821 157.796L289.851 154.913C289.851 149.69 290.032 140.502 288.77 133.838C287.689 128.434 287.87 128.254 293.993 128.254C301.019 128.254 304.441 125.192 300.479 122.67C296.695 120.868 240.856 121.048 235.631 123.21ZM276.701 153.832H260.491V143.204C260.491 131.856 260.85 131.496 272.738 130.776C277.241 130.415 276.701 131.136 276.701 153.832ZM258.148 180.131C253.465 184.814 258.508 206.791 264.633 208.772C271.837 211.113 276.522 192.199 271.118 182.293C269.316 179.05 260.67 177.609 258.148 180.131ZM219.961 204.629C223.384 220.661 243.017 256.146 251.123 271.637L247.7 277.942C243.378 285.687 243.377 292.713 247.34 296.316C263.912 311.266 294.174 342.609 306.603 350.894C320.473 359.901 351.997 357.019 329.659 325.496C319.933 311.626 299.939 293.614 289.131 280.283C284.628 274.52 281.745 272.717 277.962 272.717C272.018 272.717 269.316 276.141 273.459 278.482C276.881 280.283 277.422 289.11 274.539 294.514C269.856 303.16 252.023 293.614 256.167 284.787C257.427 282.266 259.77 280.104 261.57 280.104C266.433 280.104 270.397 272.898 266.614 270.737C264.993 269.836 261.21 264.071 258.148 257.948C245.719 233.09 235.452 214.716 228.426 204.629C220.861 192.56 217.259 191.84 219.961 204.629ZM342.809 283.886C336.325 288.75 342.089 291.631 358.301 291.271C375.954 290.912 383.879 288.029 378.475 284.067C373.972 281.004 346.952 280.825 342.809 283.886ZM156.194 287.128C149.169 290.011 154.754 293.793 167.543 295.234C180.692 296.675 186.997 295.234 186.276 291.091C185.195 286.048 165.56 283.525 156.194 287.128ZM261.57 373.951C259.77 386.921 262.472 394.306 268.597 394.306C276.522 394.306 278.143 389.983 274.9 377.735C271.118 363.324 263.191 361.162 261.57 373.951Z" fill="black"/>
</svg>
