<svg width="398" viewBox="0 0 398 397" fill="none" xmlns="http://www.w3.org/2000/svg">
<path d="M99.7598 255.673C37.6215 175.368 46.911 98.7791 121.229 79.9931C143.938 74.2127 173.046 80.8189 189.149 95.2696L197.406 102.701L209.586 95.476C279.982 52.9495 366.686 131.397 329.94 204.27C296.497 270.537 187.704 341.759 165.408 312.031C158.802 303.154 162.105 301.916 179.652 306.251C196.374 310.38 273.582 241.842 292.781 205.715C315.902 162.363 311.361 138.828 274.408 109.101C259.131 96.9211 235.391 102.288 216.811 122.52C202.154 138.209 186.877 139.448 174.285 119.629C138.571 63.8908 79.9416 108.069 96.6632 178.052C103.682 206.953 111.321 221.404 140.429 259.802C160.247 285.813 160.866 287.052 154.26 290.561C141.667 297.374 122.055 284.781 99.7598 255.673Z" fill="black"/>
<path d="M253.145 136.352C243.029 134.494 251.493 123.139 260.989 126.443C268.834 129.333 279.776 134.081 284.111 146.261C288.859 159.06 279.362 171.446 273.995 170.001C269.246 168.763 267.802 163.395 268.421 152.454C269.041 141.513 263.261 138.21 253.145 136.352Z" fill="black"/>
<path d="M276.267 201.792C262.848 204.888 252.733 194.773 258.72 187.96C263.261 183.006 280.396 182.593 285.35 187.547C289.479 191.882 286.795 199.314 276.267 201.792Z" fill="black"/>
</svg>
