<svg width="397" height="397" viewBox="0 0 397 397" fill="none" xmlns="http://www.w3.org/2000/svg">
<path fill-rule="evenodd" clip-rule="evenodd" d="M152.026 77.5593C147.18 81.1932 150.613 91.4895 158.284 96.5367C164.745 100.776 192.403 102.19 212.592 99.565C267.909 92.0952 298.192 107.237 295.164 140.548C290.924 189.405 290.117 223.928 293.145 240.483C296.577 259.662 296.174 258.249 289.714 253.403C283.455 248.76 269.121 239.271 261.045 234.224C254.383 230.186 242.875 224.332 240.654 231.802C237.02 244.117 226.118 263.094 216.428 276.015C194.422 305.289 152.026 311.951 115.686 305.692C100.342 303.068 99.9387 297.819 100.544 286.311C102.563 245.126 105.389 135.299 110.235 112.082C112.657 100.373 115.484 98.3537 124.569 95.7292C140.518 91.2876 129.616 83.6159 110.841 85.8367C97.7181 87.4518 90.2483 92.297 85.6048 109.458C78.5388 136.309 79.3463 185.165 74.501 285.1C73.2897 308.519 87.0181 316.594 106.803 318.613C118.513 319.825 136.278 320.228 166.158 320.632C203.305 321.036 221.878 321.642 234.396 319.825C248.528 317.806 254.787 312.758 271.544 301.655C324.438 266.122 322.419 269.353 322.621 222.515C323.025 115.11 308.085 87.6537 247.115 84.8272C229.349 84.0197 212.188 82.0008 205.728 80.1838C188.769 75.5404 156.871 73.9253 152.026 77.5593ZM187.961 134.895C173.224 136.107 168.177 147.009 180.694 150.441C190.99 153.267 242.673 153.873 259.834 152.056C270.332 150.844 266.092 143.375 257.613 139.741C245.096 134.29 219.456 132.271 187.961 134.895ZM162.524 176.08C127.8 177.696 136.884 187.184 152.228 190.213C183.319 196.269 265.89 197.077 265.89 189.001C265.89 177.897 226.321 173.052 162.524 176.08ZM162.725 243.713C177.059 243.309 205.728 240.886 210.977 239.271C220.062 236.445 207.545 226.754 191.798 224.534C170.6 221.505 161.716 220.698 156.669 221.101C130.02 222.515 141.729 244.318 162.725 243.713ZM292.943 266.324C290.52 268.141 267.303 291.56 239.443 303.27C228.945 307.711 223.494 307.106 230.358 298.223C235.809 288.33 254.585 246.539 259.228 246.539C261.853 246.741 292.943 266.324 292.943 266.324Z" fill="black"/>
</svg>
